# xmcd
#
# Track frame offsets:
#	150
#	17834
#	35845
#	50822
#	65219
#	81446
#	99473
#	118813
#	136060
#	151440
#	166389
#	180231
#	197915
#	211981
#	229377
#	244908
#
# Disc length: 3522
#
# Revision: 2
# Processed by: cddbd v1.5.1PL0 Copyright (c) Steve Scherf et al.
# Submitted via: CDex 1.50
# Normalized: r1:DSETVAR1
#
DISCID=ec0dc010
DTITLE=Various Artist - Primitive Road Mix
DYEAR=2003
DGENRE=Country
TTITLE0=Keith Urban - Somebody Like You
TTITLE1=Brooks and Dunn - Red Dirt Road
TTITLE2=Mark Wills - 19 Somethin'
TTITLE3=Kenny Chesney - How Forever Feels
TTITLE4=Lonestar - My Front Porch Lookin In
TTITLE5=Kenny Chesney - Young
TTITLE6=Tim McGraw - Real Good Man
TTITLE7=Chris Cagle - What a Beautiful Day
TTITLE8=Kenny Chesney - Don't Happen Twice
TTITLE9=Brian McComas - 99.9% Sure (I've never been here before)
TTITLE10=Tracy Byrd - Ten Rounds With Jose Cuervo
TTITLE11=Alan Jackson - It's Five O'Clock Somewhere
TTITLE12=Rascal Flatts - I Love You Out Loud
TTITLE13=Dierks Bentley - What Was I Thinkin
TTITLE14=Kenny Chesney - She's Got it All
TTITLE15=Keith Urban - Who Wouldn't Want To Be Me
EXTD=YEAR: 2003
EXTT0=
EXTT1=
EXTT2=
EXTT3=
EXTT4=
EXTT5=
EXTT6=
EXTT7=
EXTT8=
EXTT9=
EXTT10=
EXTT11=
EXTT12=
EXTT13=
EXTT14=
EXTT15=
PLAYORDER=
